HIERARCHY
ROOT Hips
{
	OFFSET -3.958830 18.904000 13.208200
	CHANNELS 6 Xposition Yposition Zposition Zrotation Yrotation Xrotation 
	JOINT LHipJoint
	{
		OFFSET 0.000000 0.000000 0.000000
		CHANNELS 3 Zrotation Yrotation Xrotation
		JOINT LeftUpLeg
		{
			OFFSET 1.800000 -1.400000 0.085000
			CHANNELS 3 Zrotation Yrotation Xrotation
			JOINT LeftLeg
			{
				OFFSET 2.215000 -6.000000 0.000000
				CHANNELS 3 Zrotation Yrotation Xrotation
				JOINT LeftFoot
				{
					OFFSET 2.500000 -6.900000 0.000000
					CHANNELS 3 Zrotation Yrotation Xrotation
					JOINT LeftToeBase
					{
						OFFSET 0.200000 -0.500000 1.950000
						CHANNELS 3 Zrotation Yrotation Xrotation
						End Site
						{
							OFFSET 0.000000 0.000000 0.000000
						}
					}
				}
			}
		}
	}
	JOINT RHipJoint
	{
		OFFSET 0.000000 0.000000 0.000000
		CHANNELS 3 Zrotation Yrotation Xrotation
		JOINT RightUpLeg
		{
			OFFSET -1.800000 -1.400000 0.085000
			CHANNELS 3 Zrotation Yrotation Xrotation
			JOINT RightLeg
			{
				OFFSET -2.215000 -6.000000 0.000000
				CHANNELS 3 Zrotation Yrotation Xrotation
				JOINT RightFoot
				{
					OFFSET -2.500000 -6.900000 0.000000
					CHANNELS 3 Zrotation Yrotation Xrotation
					JOINT RightToeBase
					{
						OFFSET -0.200000 -0.500000 1.950000
						CHANNELS 3 Zrotation Yrotation Xrotation
						End Site
						{
							OFFSET 0.000000 0.000000 0.000000
						}
					}
				}
			}
		}
	}
	JOINT LowerBack
	{
		OFFSET 0.000000 0.000000 0.000000
		CHANNELS 3 Zrotation Yrotation Xrotation
		JOINT Spine
		{
			OFFSET -0.087000 1.940000 -0.288900
			CHANNELS 3 Zrotation Yrotation Xrotation
			JOINT Spine1
			{
				OFFSET 0.000000 1.950000 0.060000
				CHANNELS 3 Zrotation Yrotation Xrotation
				JOINT Neck
				{
					OFFSET 0.000000 0.000000 0.000000
					CHANNELS 3 Zrotation Yrotation Xrotation
					JOINT Neck1
					{
						OFFSET 0.000000 1.600000 0.340000
						CHANNELS 3 Zrotation Yrotation Xrotation
						JOINT Head
						{
							OFFSET 0.000000 1.667000 -0.240000
							CHANNELS 3 Zrotation Yrotation Xrotation
							End Site
							{
								OFFSET 0.000000 0.000000 0.000000
							}
						}
					}
				}
				JOINT LeftShoulder
				{
					OFFSET 0.000000 0.000000 0.000000
					CHANNELS 3 Zrotation Yrotation Xrotation
					JOINT LeftArm
					{
						OFFSET 2.700000 1.550000 -0.730000
						CHANNELS 3 Zrotation Yrotation Xrotation
						JOINT LeftForeArm
						{
							OFFSET 5.450000 0.000000 0.000000
							CHANNELS 3 Zrotation Yrotation Xrotation
							JOINT LeftHand
							{
								OFFSET 3.450000 0.000000 0.000000
								CHANNELS 3 Zrotation Yrotation Xrotation
								JOINT LeftHandIndex1
								{
									OFFSET 0.750000 0.000000 0.000000
									CHANNELS 3 Zrotation Yrotation Xrotation
									End Site
									{
										OFFSET 0.000000 0.000000 0.000000
									}
								}
							}
						}
					}
				}
				JOINT RightShoulder
				{
					OFFSET 0.000000 0.000000 0.000000
					CHANNELS 3 Zrotation Yrotation Xrotation
					JOINT RightArm
					{
						OFFSET -2.700000 1.550000 -0.730000
						CHANNELS 3 Zrotation Yrotation Xrotation
						JOINT RightForeArm
						{
							OFFSET -5.450000 0.000000 0.000000
							CHANNELS 3 Zrotation Yrotation Xrotation
							JOINT RightHand
							{
								OFFSET -3.450000 0.000000 0.000000
								CHANNELS 3 Zrotation Yrotation Xrotation
								JOINT RightHandIndex1
								{
									OFFSET -0.750000 0.000000 0.000000
									CHANNELS 3 Zrotation Yrotation Xrotation
									End Site
									{
										OFFSET 0.000000 0.000000 0.000000
									}
								}
							}
						}
					}
				}
			}
		}
	}
}
MOTION
Frames: 9
Frame Time: 0.016667
0.628320 17.968560 -2.374450 -10.778188 -7.588949 -0.740444 -15.157469 12.338834 1.603461 5.932366 -1.347729 -14.075768 -3.205829 5.732568 18.334430 -0.655529 4.033750 3.197369 0.103940 -0.204780 0.204910 18.793281 -7.181918 7.317607 -17.999329 17.911027 -69.551256 22.661665 -30.829767 73.347271 -2.850488 -14.581868 -0.159605 -0.131940 0.158150 0.048980 -4.301107 -3.307252 -9.124743 25.271744 -11.001165 38.851978 -6.246918 -1.661240 0.670691 3.916321 -8.086821 -10.654153 -19.081743 7.006099 42.018468 -6.339530 2.334740 -16.531580 -17.431963 -4.215823 3.300235 -44.937885 6.827725 -14.056574 -56.244305 -57.882492 23.549901 -3.524522 3.046775 0.799060 -0.097670 0.073430 -0.009210 9.312691 10.679804 5.770199 50.976251 2.456605 -12.367919 29.865754 26.920963 3.228296 2.231316 -1.031806 -0.348220 0.407070 0.224350 -0.257920 
0.665870 17.818490 -2.414810 -11.616323 -9.168615 0.387803 -15.215014 12.154651 1.505810 7.039092 -1.579084 -16.022864 -3.814921 6.362600 20.715700 -0.603135 4.289531 3.086755 0.138860 -0.138680 0.205520 18.819799 -6.685357 7.782675 -22.666306 18.575824 -76.059966 26.840965 -35.459432 75.378086 -3.208976 -15.750034 -0.380384 -0.099160 0.149760 0.025000 -4.279715 -3.534634 -9.278842 26.340149 -11.422315 40.479553 -5.870883 -0.887566 -0.714196 3.932309 -9.230937 -10.503578 -21.286740 8.347030 40.918951 -6.554870 2.417430 -17.561810 -20.231627 -5.099088 2.777417 -45.380933 6.901534 -15.060581 -39.872542 -54.139597 13.495155 -3.470053 2.939376 0.778590 -0.115090 0.082430 0.017040 11.997418 12.929371 5.906337 50.320277 3.956701 -11.078209 22.287479 24.111107 1.737864 2.257342 -0.955287 -0.332680 0.430640 0.192750 -0.234120 
0.714840 17.642970 -2.453330 -11.959890 -11.023736 1.795695 -15.279908 11.925853 1.460425 8.023422 -1.605204 -16.885780 -5.498611 7.051973 21.127674 -0.515136 4.467094 2.980022 0.218100 -0.031890 0.230640 18.843779 -6.192543 8.229180 -28.606316 18.023636 -82.391648 33.308807 -39.500244 73.418437 -3.430376 -16.267613 -0.483058 -0.064230 0.087180 0.077280 -4.257386 -3.706757 -9.450836 26.993600 -11.399825 41.466875 -5.589706 -0.053983 -1.487212 4.107979 -10.108971 -10.396453 -22.737595 9.073659 39.060746 -8.212570 2.928310 -18.681170 -24.059608 -6.691527 2.390619 -44.390195 6.879078 -15.146763 -25.409567 -48.520099 5.853317 -3.413313 2.937880 0.735160 -0.132480 0.123250 0.040980 15.397001 15.685441 6.233185 48.352987 5.492502 -9.477800 15.306175 21.290693 0.680525 2.283160 -0.975666 -0.243150 0.351370 0.142220 -0.207660 
0.763680 17.463710 -2.476420 -12.059222 -13.160718 2.331144 -15.312452 11.763113 1.431716 8.619705 -1.479398 -18.636800 -5.999986 8.213307 24.780560 -0.424584 4.989261 2.737152 0.263230 0.030570 0.242140 18.869668 -5.913223 8.494560 -32.874231 18.027837 -85.915583 35.757608 -43.151629 74.996252 -3.674211 -17.026433 -0.641566 -0.037160 0.041400 0.084120 -4.296412 -3.706471 -9.539777 27.912381 -11.492190 42.426089 -6.249161 0.446251 -1.614949 4.381074 -11.239602 -11.135419 -25.393459 10.665227 38.130306 -8.667790 3.133120 -19.145620 -26.892732 -9.001923 2.706434 -43.194647 7.843595 -14.950811 -14.428328 -42.788484 1.283868 -3.345904 2.910293 0.719170 -0.163100 0.139860 0.039660 17.771062 19.274706 7.088306 47.309515 7.172088 -8.036086 9.051299 18.543835 -0.045294 2.305247 -0.982409 -0.200640 0.314840 0.124690 -0.195020 
0.812690 17.295670 -2.497030 -11.621129 -13.819428 1.776336 -15.349631 11.772192 1.494019 8.237552 -1.434555 -20.482490 -5.382236 9.137809 29.059057 -0.341435 5.550987 2.508835 0.329860 0.108200 0.291700 18.839048 -5.805630 8.509472 -34.896077 17.473928 -84.521960 36.498446 -45.503712 76.270928 -3.841491 -17.417253 -0.719781 0.000280 -0.006430 0.091830 -4.215179 -3.892954 -9.579296 28.246541 -11.767258 43.570435 -6.688450 0.193762 -1.221170 4.973058 -11.711626 -12.069695 -26.982082 11.680633 38.479427 -9.602530 3.129470 -20.763040 -29.964007 -11.874266 3.235754 -41.451694 8.582841 -14.047364 -5.102724 -36.725576 -1.443791 -3.269153 2.857178 0.747150 -0.205070 0.194570 0.059390 19.839011 22.762040 7.980817 45.276381 8.846352 -6.608066 4.280087 15.800112 -0.358129 2.322504 -0.972185 -0.176640 0.324310 0.085800 -0.191420 
0.858330 17.105270 -2.496680 -10.659625 -15.459355 1.968989 -15.368520 11.530113 1.672369 7.385875 -1.564971 -23.470837 -5.372004 11.007748 35.238142 -0.221902 6.706114 2.074118 0.305510 0.059510 0.287580 18.856102 -5.687574 8.520584 -37.266186 17.393363 -84.108094 37.845470 -47.971941 77.344195 -3.933957 -17.829731 -0.809447 0.014320 0.018620 0.071540 -4.280360 -3.728865 -9.654558 28.675222 -11.603574 42.793358 -7.534114 0.034700 -0.160327 5.123040 -12.507790 -13.282674 -29.166079 12.889735 37.191352 -9.760220 2.910950 -20.030750 -32.373687 -14.337181 4.133648 -38.787346 10.153380 -11.566558 0.939025 -28.586523 -2.228553 -3.319550 2.794920 0.752030 -0.190150 0.150040 0.027370 22.203111 25.816522 8.802849 43.146678 10.186409 -5.662327 0.184867 14.160914 -0.576873 2.303508 -0.963254 -0.224540 0.355070 0.132590 -0.214680 
0.892320 16.950260 -2.488120 -9.483274 -14.043018 0.453507 -15.354342 11.297655 1.763947 6.519136 -1.863460 -24.784447 -5.054596 12.300940 39.983985 -0.092011 7.662797 1.741055 0.283190 0.017790 0.271280 18.914006 -5.580160 8.572800 -40.300380 15.037591 -83.486233 39.624733 -51.255475 77.672834 -3.990033 -18.044639 -0.864782 0.023060 0.059240 0.071460 -4.396538 -3.558330 -9.695219 30.047913 -13.139674 41.578982 -9.159629 -1.342268 1.624848 5.366492 -12.854600 -14.673359 -31.152224 14.109245 37.166796 -9.445880 2.380090 -18.567340 -34.102247 -17.256668 5.540096 -35.516731 11.271948 -8.212553 4.675681 -19.543485 -1.931463 -3.404106 2.758888 0.747990 -0.169910 0.116900 0.013250 23.717442 28.346404 9.331193 41.624627 11.764720 -5.199334 -2.895034 13.713206 -0.816243 2.285152 -0.970324 -0.256030 0.383940 0.175830 -0.216760 
0.911700 16.842700 -2.444270 -8.595013 -12.123958 -2.823688 -15.330688 11.330213 1.830096 6.114220 -1.906054 -24.674725 -3.795330 13.275748 45.276578 0.183087 8.543312 1.437161 0.359890 0.141300 0.279730 18.912630 -5.682335 8.392407 -40.404804 14.492735 -79.120290 39.542906 -52.466635 78.420551 -4.050741 -18.106995 -0.861134 0.061260 0.012950 0.078560 -4.398624 -3.542614 -9.656812 31.269192 -14.486331 41.225938 -10.300464 -2.583294 3.534533 5.875971 -12.711890 -16.030572 -32.715060 14.762328 39.514785 -9.387580 1.315350 -17.539460 -35.185154 -19.454151 6.799405 -32.327582 12.156260 -5.596638 5.694050 -12.154835 -1.261315 -3.395703 2.789975 0.707340 -0.194210 0.158430 0.054220 24.010824 30.215295 9.870666 40.284876 12.383701 -5.794431 -5.642459 15.429906 -1.328380 2.272282 -1.046956 -0.176810 0.354070 0.111840 -0.172200 
0.939670 16.730650 -2.367390 -7.850738 -11.648000 -4.818864 -15.264922 11.281050 1.917677 5.438548 -1.761440 -24.968182 -2.734426 14.353608 50.183285 0.426529 9.449759 1.145481 0.395180 0.190810 0.292010 18.941425 -5.973102 8.078638 -39.031182 15.500470 -73.940627 34.956960 -51.824968 82.591507 -4.127389 -18.543170 -0.961954 0.084030 0.000180 0.075780 -4.544895 -3.146245 -9.535626 33.402922 -14.425662 38.720375 -11.408467 -2.966508 4.637236 5.914065 -12.764968 -15.952852 -33.872948 15.576950 41.122459 -9.407960 0.659600 -16.090220 -34.253253 -18.685120 7.175474 -30.862382 12.567717 -4.255771 4.988894 -8.328770 -0.938601 -3.419147 2.774572 0.680580 -0.198350 0.164460 0.070560 22.968514 29.300361 9.496665 40.746634 13.016322 -6.563345 -8.659212 17.827353 -2.132358 2.251709 -1.102435 -0.149660 0.344800 0.082750 -0.154650 
